<svg xmlns="http://www.w3.org/2000/svg" viewBox="0 0 565.1 219.43"><defs><style>.cls-1{fill:#fff}.cls-2{fill:#003057}.cls-3{fill:#aa182c}</style></defs><g id="Layer_2" data-name="Layer 2"><g id="Layer_1-2" data-name="Layer 1"><path class="cls-1" d="M553.64 152.78a9.08 9.08 0 0 0-6.28-6l-18.42-5 .17-2V88.34a9.11 9.11 0 0 0-1.62-5.19q-5.86-8.49-11.74-16.93l-.21-.29-2.81-3.74 4.67-.22a9 9 0 0 0 4.4-1.38l3-1.89a9.07 9.07 0 0 0 4.34-7.7V26.61a9.07 9.07 0 0 0-1.65-5.23c-1.68-2.41-4.2-5.82-7.48-10.15l-3.13-4.11c-1.88-2.45-4-5.22-8.52-5.22h-.43c-10.72.51-21.44 1-31.86 1.41a9.2 9.2 0 0 0-4.44 1.36l-3 1.88a9.15 9.15 0 0 0-1.55 1.22l-5.15 5-1.59-.77a9.19 9.19 0 0 0-4.09-1 7.69 7.69 0 0 0-.83 0q-5.16.48-10.32.91a9.17 9.17 0 0 0-2.75.68l-.52.22h-1.32q-11.38.36-22.76.68a9.12 9.12 0 0 0-4.24 1.18l-1.56.89-1.21-.66a9.1 9.1 0 0 0-4.31-1.11h-.27l-20.6.48a9.08 9.08 0 0 0-4.23 1.15l-3 1.66-.26.16-1.64.76-1.28-1.12a9.13 9.13 0 0 0-6-2.27H369c-10 .18-19.14.32-28.1.43a9.13 9.13 0 0 0-4.58 1.3L333.58 18a8.49 8.49 0 0 0-1.37 1c-1.56 1.39-3.21 2.79-5 4.26s-3.42 2.88-5.1 4.38a9.12 9.12 0 0 0-3.07 6.78v4.73h-8.14V27.3a9.11 9.11 0 0 0-4.07-7.6l-2.39-1.59a9.14 9.14 0 0 0-5.09-1.53q-12.18.06-24.35.06a9 9 0 0 0-3 .52l-.82.29-.82-.29a9.23 9.23 0 0 0-3-.52q-11.61 0-23.23-.09H244a9 9 0 0 0-6.39 2.65 9.19 9.19 0 0 0-2.69 6.47v13.47h-9.34V27a9.17 9.17 0 0 0-4.4-7.8l-2.7-1.64a9.17 9.17 0 0 0-4.62-1.32c-8.65-.1-17.32-.23-25.77-.37h-.17a9.11 9.11 0 0 0-9 7.73l-.15 1-4.43.23-.26-1a9.1 9.1 0 0 0-4-5.45l-2.71-1.67a9.2 9.2 0 0 0-4.59-1.36q-10.68-.24-21.35-.51h-2l-.4-1.92a9.19 9.19 0 0 0-4-5.85l-2.88-1.84a9.12 9.12 0 0 0-4.62-1.42c-10.19-.32-20.2-.65-29.74-1h-.39a9 9 0 0 0-3.78.83l-1.13.52-1.09-.6a9.16 9.16 0 0 0-4.06-1.13l-15.06-.62h-.38a9 9 0 0 0-3.18.57l-1 .36-.94-.44a9 9 0 0 0-3.49-.86C53.15 1 43 .5 33.22 0h-.46a9.06 9.06 0 0 0-6.28 2.51 9.16 9.16 0 0 0-2.84 6.61v30.36a9.09 9.09 0 0 0 4.08 7.6L30.6 49c.18.12.37.24.57.35l1.07.6.17 1.21c2.8 20.41 5.64 39 8.38 57l3.48 22.94.78 5.21-38.31 10.44a9.12 9.12 0 0 0-4.41 14.89l14.18 15.85-10.7 29.72a9.13 9.13 0 0 0 8.59 12.22 9 9 0 0 0 3-.51L69 201l.83 2.29a9.16 9.16 0 0 0 3.17 4.23 9.11 9.11 0 0 0 8.13 1.35 660.29 660.29 0 0 1 392.25 0 9.1 9.1 0 0 0 11.31-5.63l.82-2.29 53.12 18a9.07 9.07 0 0 0 2.92.48 9.12 9.12 0 0 0 8.58-12.23l-10.85-30 12.81-15.9a9 9 0 0 0 1.55-8.52z"/><path class="cls-2" d="M545 155.59l-23.22-6.34-11.41 9a6.51 6.51 0 0 1-5.48.94l-22.91-7.78v38.73l59.58 20.18-12.59-34.85zm-491.6 2.84a2.74 2.74 0 0 1-3.51-2.29l-1.63-11.19-39.13 10.64 17.8 19.9-12.55 34.85 58-20.18v-37zm422.67 41.77c-128.53-40.29-269.16-40.29-397.7 0v-51.33c128.54-40.28 269.17-40.28 397.7 0zM307.75 54.25l4.74 9.45 10.58 1.51-7.67 7.35 1.81 10.39-9.46-4.91-9.45 4.91 1.79-10.39-7.65-7.35 10.58-1.51 4.73-9.45zm-123.67 47.82l-2.39.19c-5.42-25.26-11.05-50.7-16.45-76.06l-2.71-1.67q-11.1-.24-22.21-.53-5.49 41.74-11 83.66l-4.14.71v15.81l2.4 1.65 25.25-4.83v-13.8l-2.39-1.64-2.57.37q.55-6 1.12-12l12.37-.84c.66 2.91 1.95 8.58 2.35 10.54-.65.27-5.12 1-5.12 1v13.22l2.4 1.64 25.47-3.36v-12.44zm-26.43-23.31l-6.1.49c.81-6.27 1.61-12.48 2.43-18.67 1.23 6.08 2.44 12.17 3.67 18.18z"/><path class="cls-2" d="M130.12 14.79L127.24 13q-14.89-.46-29.79-1v23l2.89 1.85h2.05q-1.8 18.87-3.61 37.77-4.44-30.57-8.88-61.18L87 11.56l-15.09-.61s-3 43.84-5.55 71.87c-1.84-14.5-4-32-5.52-43.67 1.46-.11 5-.31 5-.31V12.46L63 10.56Q47.88 9.9 32.79 9.14V39.5l2.87 1.91s2.42-.18 4.6-.37c5.28 39.71 10.6 71.22 16 108.61 0 .39 2.88 1.78 2.88 1.78 6.14-2.33 12.33-4.51 18.52-6.53 2-18 4-30.4 5.94-46.29 2.52 12.92 4.67 21.64 7.43 36.62l2.85 1.77q9.36-2.65 18.78-4.94c3.48-36.25 11.43-96 11.43-95.92l6-.16q.03-10.6.03-21.19zM415 24.31V43l4.2.1s-.08 12.72-.15 24.46c-5.41-19.7-12.65-44.7-12.65-44.69q-10.32.26-20.64.48l-3 1.68v16.88h4.79q-.21 31.54-.43 63.07l-1.36-.16-3 1.65v12l23.09 4 3-1.64.12-13.08-4.23-.65q.07-12 .16-23.9l12.62 41.76 15.54 3.85 3-1.65q.25-41.71.49-83.44h1.24l3-1.72V21.91q-11.4.38-22.8.68zm102 28.55l3-1.86V26.61C516.17 21.07 508.39 11 508.39 11q-16 .77-31.92 1.42l-3 1.88q-6.33 6.16-12.66 12.26V77.2q6.16 7.89 12.32 15.83 12.73 2.43 25.46 4.89v22.21l-15.85-4.28V104.7l-18.9-3.85-3 1.79v21.31q6 8.55 12.1 17.17 16.17 5.31 32.32 10.72l3-1.77q5.93-5.55 11.83-11.13V88.36q-5.86-8.49-11.72-16.9l-25.45-3.6q.06-14.87.11-29.74l15.72 1v11.66q9.07 1 18.25 2.08zM222.31 92.78v6.28l-10.48.82v-57l4.61-.12V27l-2.7-1.64q-12.91-.15-25.83-.37v16.2l2.69 1.65h2.4v58.31l-3.46.38v12.17l2.68 1.63q24.64-1.76 49.28-3.56v-18l-2.68-1.61c-5.47.23-11 .42-16.51.62zm76.36 6.5c-5.64-11.21-11.38-22.79-17-34 5.18-7.81 9.91-15.17 15.1-23h5v-15l-2.39-1.59q-12.2.06-24.39.06v15.14h2.38v1.6h.08L265.51 60.8V42.58h4.15V27.39l-2.4-1.61q-11.62 0-23.26-.09v15.37l2.39 1.62h2.23v56.66l-4.62.11v10.45l2.39 1.61 25.21-.51v-10.36L269.21 99h-3.69c0-2.94.08-6.26.08-9l6.59-10.39L282 99h-3.86v10.36l2.39 1.6 22.31.5V101l-2.4-1.6c-.59-.08-1.18-.1-1.77-.12zM341 24.16l-2.73 1.64c-3.25 2.89-6.84 5.78-10.08 8.66l-.33 69.35c3.2 3.58 6.74 7.15 9.93 10.73l28 2.76 2.72-1.63q4.86-4.71 9.71-9.43.29-37 .55-74-4.77-4.24-9.63-8.52-14.05.28-28.14.44zm8.23 75.11l-2-2.51.24-54.41 10.91-.14.62.59-.39 57.48z"/><path class="cls-3" d="M127.23 13v21.15l-6 .15s-7.95 59.71-11.43 96q-9.41 2.28-18.79 4.93c-3.42-18.57-5.91-27.51-9.32-46.78-2.35 20.26-4.69 33.55-6.98 54.67q-9.3 3-18.52 6.53C50.73 111.58 45.32 79.63 40 38.89c-2 .21-7.18.6-7.18.6V9.13q15.08.75 30.16 1.42v26.4s-3.52.18-5 .3c2 15.66 5.27 42 7.26 57.3 2.66-25 6.69-83.63 6.69-83.62q7.54.31 15.09.61 5.37 37 10.73 73.83 2.42-25.3 4.83-50.54l-5.14.17V12q14.9.51 29.79 1zm31.37 104.95v-13.22s4.47-.76 5.12-1C163.17 101 161 91.38 161 91.38l-14.36 1-1.32 14 5.16-.75v13.8l-25.23 4.8v-15.81l4.14-.71q5.49-41.93 11-83.66 11.1.29 22.21.53 8.33 39.07 16.64 77.93l4.9-.39v12.48zm-9.68-38.48c2.91-.25 5.81-.48 8.73-.71q-2.64-12.91-5.26-26-1.74 13.24-3.47 26.71zm40.67 34.27v-12.17l3.46-.38v-60h-5.15v-16.2q12.91.22 25.83.37v15.81l-4.6.12v58.8l13.18-1v-6.31l16.57-.59v18q-24.66 1.81-49.29 3.55zm109.79-73.06h-4.44q-7.77 11.74-15.54 23.46l17.65 35 3.39.11v10.52q-11.14-.24-22.3-.51V99H282l-11.13-22q-3.87 6.12-7.75 12.25V99h6.09v10.35l-25.21.52V99.44l4.62-.11V41H244V25.69q11.64.07 23.26.09v15.17h-4.15v23.52l15.38-23.56H275V25.79q12.2 0 24.39-.06-.01 7.45-.01 14.95zm69.77-16.96q-14.07.26-28.15.44l-9.75 8.66-.32 69.37 9.59 10.73 28 2.75q4.86-4.71 9.71-9.43.29-37 .55-74-4.78-4.24-9.63-8.52zm-7.86 76.37l-.39.43-11.66-1.25-2-2.51q.12-27.68.25-55.36l.69-.68 13-.17.6.6q-.29 29.47-.49 58.94zm59.23 23.19Q412.74 97.43 405 71.75l-.24 35.32 4.23.65-.12 13.08-23.08-4v-12l4.37.51.45-65.1h-4.81V23.4q10.32-.22 20.64-.48S416.81 58.84 422 78.5c.08-12.35.23-37.06.23-37.06l-4.23-.08V22.62q11.4-.31 22.8-.68v20.09l-4.25-.16-.51 85.27q-7.74-1.95-15.52-3.86zM520 138.95l-11.8 11.13q-16.16-5.41-32.31-10.72-6-8.62-12.09-17.18v-21.32l18.9 3.85v11.15l18.87 5.09V96.1l-25.46-4.88-12.32-15.83V24.72q6.33-6.12 12.66-12.29 16-.66 31.92-1.42S516.14 21 520 26.59v24.36l-18.36-2.12V37.16L483 36q-.06 15.9-.11 31.79l25.45 3.6q5.85 8.41 11.72 16.9-.06 25.37-.06 50.66z"/><path class="cls-2" d="M444.3 22.47v7.32l3.88-.27a10.3 10.3 0 0 1-.25 2.59 6.5 6.5 0 0 1-2 .45L444.29 34v3.94a25.27 25.27 0 0 0 5.76-.79 6.82 6.82 0 0 0 2.95-1.89c.09-.1.16-.2.26-.3a6.65 6.65 0 0 0 1.32-1.12 5.34 5.34 0 0 0 1.46-2.6 29 29 0 0 0 .25-4.73v-6.39c-3.47.32-6.93.63-10.4.92-.54.49-1.06.96-1.59 1.43z"/><path class="cls-3" d="M445.87 36.54v-4a5.55 5.55 0 0 0 2.54-.65 2.41 2.41 0 0 0 1.08-1.23 9.47 9.47 0 0 0 .25-2.59l-3.87.29v-7.3c3.47-.29 6.93-.6 10.4-.92v6.39a29.18 29.18 0 0 1-.25 4.73 5.42 5.42 0 0 1-1.46 2.6 6.76 6.76 0 0 1-2.94 1.89 25.54 25.54 0 0 1-5.75.79z"/><circle class="cls-1" cx="556.92" cy="210.34" r="8.18"/><path class="cls-2" d="M562.49 210.32a5.58 5.58 0 1 1-5.52-5.43 5.46 5.46 0 0 1 5.52 5.43zm-9.76 0a4.23 4.23 0 0 0 4.24 4.34 4.16 4.16 0 0 0 4.14-4.3 4.19 4.19 0 1 0-8.38 0zm3.34 2.81h-1.26v-5.43a14.08 14.08 0 0 1 2.09-.17 2.89 2.89 0 0 1 1.85.43 1.37 1.37 0 0 1 .56 1.16 1.41 1.41 0 0 1-1.13 1.29v.07c.53.17.8.6 1 1.32a4.74 4.74 0 0 0 .4 1.32h-1.32a4.59 4.59 0 0 1-.43-1.32c-.1-.56-.43-.83-1.12-.83h-.6v2.16zm0-3h.6c.7 0 1.26-.23 1.26-.79s-.36-.83-1.16-.83a2.57 2.57 0 0 0-.69.07v1.55z"/><path class="cls-1" d="M144.12 159.28a4.29 4.29 0 0 1-.51 2 6 6 0 0 1-1.56 1.86 11.1 11.1 0 0 1-2.63 1.58 18.4 18.4 0 0 1-3.74 1.15 14.09 14.09 0 0 1-2.27.28 18 18 0 0 1-2.19 0 9.08 9.08 0 0 1-2.32-.45l1.11-2.9a8.78 8.78 0 0 0 2 .41 14.43 14.43 0 0 0 1.82 0 13.59 13.59 0 0 0 1.85-.21 13.78 13.78 0 0 0 4.05-1.36c.89-.53 1.33-1.07 1.33-1.63a.65.65 0 0 0-.42-.69 2.8 2.8 0 0 0-1.29 0l-.75.11-1.35.22-1.78.29-2 .33a8.68 8.68 0 0 1-1.93.1A3.91 3.91 0 0 1 130 160a2.52 2.52 0 0 1-1-.93 2.92 2.92 0 0 1-.36-1.52 3.5 3.5 0 0 1 .57-1.84 6.63 6.63 0 0 1 1.63-1.75 12.23 12.23 0 0 1 2.57-1.48 17.41 17.41 0 0 1 3.38-1 16.9 16.9 0 0 1 2.25-.3h2.18a9.74 9.74 0 0 1 2.35.35l-1 2.83a9.88 9.88 0 0 0-1.27-.21c-.47 0-1-.08-1.48-.09a14.54 14.54 0 0 0-3.07.28 19 19 0 0 0-2 .53 11.6 11.6 0 0 0-1.62.65 4.4 4.4 0 0 0-1.08.74 1.1 1.1 0 0 0-.39.77.64.64 0 0 0 .4.66 2.33 2.33 0 0 0 1.18 0l2.45-.4 3.73-.61a8.35 8.35 0 0 1 1.95-.1 3.78 3.78 0 0 1 1.47.4 2.25 2.25 0 0 1 .93.93 2.67 2.67 0 0 1 .35 1.37zm19.88-8.14a4.93 4.93 0 0 1-.48 2.26 5.47 5.47 0 0 1-1.14 1.55 5.38 5.38 0 0 1-2.57 1.31l-8.27 1.42v4.56l-3.21.55v-13.35l11.48-2a4.48 4.48 0 0 1 1.23 0 3.33 3.33 0 0 1 1.38.44 3 3 0 0 1 1.11 1.14 4 4 0 0 1 .47 2.12zm-3.21.55a1.38 1.38 0 0 0-.16-.74 1 1 0 0 0-.4-.39 1.25 1.25 0 0 0-.48-.14 1.57 1.57 0 0 0-.39 0l-7.79 1.34v3l7.79-1.34a1.3 1.3 0 0 0 .35-.13 1.91 1.91 0 0 0 .48-.32 2 2 0 0 0 .43-.54 1.67 1.67 0 0 0 .19-.74zm24.13-1.19a7.1 7.1 0 0 1-.59 2.82 8.06 8.06 0 0 1-1.7 2.49 10 10 0 0 1-2.71 1.92 11.7 11.7 0 0 1-3.62 1.07 10.07 10.07 0 0 1-3.62-.08 7.28 7.28 0 0 1-2.71-1.17 5.45 5.45 0 0 1-1.7-2 6 6 0 0 1-.59-2.66 7.1 7.1 0 0 1 .59-2.82 8.06 8.06 0 0 1 1.7-2.49 9.75 9.75 0 0 1 2.71-1.91 11.7 11.7 0 0 1 3.62-1.07 10.31 10.31 0 0 1 3.62.08 7.28 7.28 0 0 1 2.71 1.17 5.45 5.45 0 0 1 1.7 2 6 6 0 0 1 .59 2.65zm-3.4.47a4 4 0 0 0-.32-1.59 3.06 3.06 0 0 0-1-1.23 4.06 4.06 0 0 0-1.63-.71 6.67 6.67 0 0 0-2.29 0 7.44 7.44 0 0 0-2.28.66 5.43 5.43 0 0 0-1.63 1.16 4.49 4.49 0 0 0-1 1.5 4.59 4.59 0 0 0-.32 1.67 4 4 0 0 0 .32 1.59 3.06 3.06 0 0 0 1 1.23 3.93 3.93 0 0 0 1.63.71 6.62 6.62 0 0 0 2.28 0 7.59 7.59 0 0 0 2.29-.66 5.56 5.56 0 0 0 1.63-1.16 4.49 4.49 0 0 0 1-1.5 4.39 4.39 0 0 0 .32-1.64zm23.59-4.97a5 5 0 0 1-.22 1.57 4.53 4.53 0 0 1-.58 1.21 4.4 4.4 0 0 1-.81.9 5.36 5.36 0 0 1-.91.61l2.25 4.7-3.46.37-2.06-4.36-6.76.71v4.56l-3.24.34v-13.3l11.58-1.22a4.53 4.53 0 0 1 1.24.06 3.64 3.64 0 0 1 1.39.53 3.32 3.32 0 0 1 1.12 1.22 4.34 4.34 0 0 1 .46 2.1zm-3.24.34a1.44 1.44 0 0 0-.17-.75 1.07 1.07 0 0 0-.41-.41 1.3 1.3 0 0 0-.49-.17 2 2 0 0 0-.4 0l-7.86.83v3l7.86-.83a1.82 1.82 0 0 0 .35-.1 2 2 0 0 0 .49-.29 1.67 1.67 0 0 0 .43-.51 1.37 1.37 0 0 0 .2-.74zm16.42-2.89v10.47l-3.23.25V143.7l-5.82.45v-2.88l14.87-1.16V143zm25.36 4.62a3.75 3.75 0 0 1-.52 1.9 5.09 5.09 0 0 1-1.59 1.62 9.37 9.37 0 0 1-2.68 1.17 17.23 17.23 0 0 1-3.81.57 13.85 13.85 0 0 1-2.31-.07 22.38 22.38 0 0 1-2.24-.36 10.38 10.38 0 0 1-2.37-.81l1.13-2.73a10.36 10.36 0 0 0 2 .72 15.32 15.32 0 0 0 1.86.33 13.49 13.49 0 0 0 1.89.07 12.77 12.77 0 0 0 4.13-.73c.91-.39 1.36-.87 1.36-1.43a.78.78 0 0 0-.43-.76 2.92 2.92 0 0 0-1.31-.22h-6.03a9.25 9.25 0 0 1-2-.2 4.63 4.63 0 0 1-1.55-.63 3.15 3.15 0 0 1-1-1.09 3.12 3.12 0 0 1-.37-1.57 3 3 0 0 1 .58-1.76 5.42 5.42 0 0 1 1.66-1.5 10.15 10.15 0 0 1 2.63-1.08 16.66 16.66 0 0 1 3.45-.53 16 16 0 0 1 2.29 0c.67.07 1.41.17 2.23.32a11.73 11.73 0 0 1 2.39.71l-1 2.68c-.38-.14-.81-.28-1.29-.41s-1-.23-1.51-.32a13.81 13.81 0 0 0-1.59-.18 11.35 11.35 0 0 0-1.54 0 20.16 20.16 0 0 0-2.06.21 9.88 9.88 0 0 0-1.66.4 3.86 3.86 0 0 0-1.1.57.91.91 0 0 0-.4.71.77.77 0 0 0 .41.72 2.42 2.42 0 0 0 1.2.22h6.31a9.24 9.24 0 0 1 2 .2 4.24 4.24 0 0 1 1.5.63 2.86 2.86 0 0 1 1 1.07 3.41 3.41 0 0 1 .34 1.56zm35.01-.12a4 4 0 0 1-.33 1.69 3.12 3.12 0 0 1-.9 1.15 3.71 3.71 0 0 1-1.33.67 6.72 6.72 0 0 1-1.66.23l-12.15.12v-13.35l12.15-.12a6.06 6.06 0 0 1 1.7.2 3.54 3.54 0 0 1 1.33.66 3.09 3.09 0 0 1 .87 1.16 4.23 4.23 0 0 1 .31 1.72 3.68 3.68 0 0 1-.22 1.16 3.33 3.33 0 0 1-.54 1 2.72 2.72 0 0 1-1.07.79 2.64 2.64 0 0 1 1.07.84 3.56 3.56 0 0 1 .54 1 3.85 3.85 0 0 1 .23 1.08zm-3.13-5.52a1.34 1.34 0 0 0-.17-.72 1 1 0 0 0-.4-.39 1.63 1.63 0 0 0-.47-.16 1.43 1.43 0 0 0-.39 0l-8.56.08v2.65l8.56-.08a1.85 1.85 0 0 0 .34 0 1.41 1.41 0 0 0 .47-.19 1.51 1.51 0 0 0 .43-.41 1.27 1.27 0 0 0 .19-.78zm0 5.15a1.32 1.32 0 0 0-.17-.72 1.09 1.09 0 0 0-.4-.4 1.4 1.4 0 0 0-.47-.17 1.43 1.43 0 0 0-.39 0l-8.56.08V149l8.56-.08a1.85 1.85 0 0 0 .34 0 1.62 1.62 0 0 0 .47-.18 1.38 1.38 0 0 0 .43-.41 1.21 1.21 0 0 0 .19-.75zm7.69 4.13v-13.35h3.26v13.35zm23.39-3.87a3.53 3.53 0 0 1-.52 1.86 4.42 4.42 0 0 1-1.59 1.49 8.8 8.8 0 0 1-2.69 1 17.46 17.46 0 0 1-3.81.28 14.42 14.42 0 0 1-2.31-.25 22.86 22.86 0 0 1-2.24-.53 11.56 11.56 0 0 1-2.37-1l1.13-2.64a11 11 0 0 0 2 .88q1 .31 1.86.48a14.25 14.25 0 0 0 1.89.22 12.28 12.28 0 0 0 4.14-.41c.91-.32 1.36-.76 1.36-1.32a.84.84 0 0 0-.43-.79 3 3 0 0 0-1.31-.32l-.77-.07-1.38-.1-1.81-.12-2.07-.15a9.6 9.6 0 0 1-2-.35 5.14 5.14 0 0 1-1.56-.75 3.49 3.49 0 0 1-1-1.17 3.29 3.29 0 0 1-.37-1.6 2.82 2.82 0 0 1 .58-1.71 4.74 4.74 0 0 1 1.67-1.37 9.88 9.88 0 0 1 2.63-.88 16.14 16.14 0 0 1 3.45-.26 16.74 16.74 0 0 1 2.3.23c.67.12 1.41.28 2.23.5a12 12 0 0 1 2.4.9l-1 2.61a11.78 11.78 0 0 0-1.3-.51c-.48-.16-1-.31-1.51-.44s-1.06-.23-1.59-.31a12.15 12.15 0 0 0-1.55-.13 19.74 19.74 0 0 0-2.07 0 8.85 8.85 0 0 0-1.66.27 3.23 3.23 0 0 0-1.1.49.83.83 0 0 0 0 1.43 2.66 2.66 0 0 0 1.2.32l2.5.18 3.81.27a9.42 9.42 0 0 1 2 .36 4.78 4.78 0 0 1 1.5.74 3.28 3.28 0 0 1 1 1.15 3.11 3.11 0 0 1 .36 1.52zm12.83-5.56v10.47l-3.24-.16v-10.47l-5.83-.29v-2.88l14.89.74v2.88zm26.16 3.26a4.7 4.7 0 0 1-.22 1.53 3.88 3.88 0 0 1-.58 1.11 3.18 3.18 0 0 1-.81.75 4.8 4.8 0 0 1-.91.45l2.25 5.11-3.47-.26-2.07-4.71L333 149v4.56l-3.25-.24V140l11.62.88a5.65 5.65 0 0 1 1.25.28 4.29 4.29 0 0 1 1.39.78 4.52 4.52 0 0 1 1.13 1.42 4.73 4.73 0 0 1 .46 2.18zm-3.25-.25a1.61 1.61 0 0 0-.17-.78 1.43 1.43 0 0 0-.41-.49 1.55 1.55 0 0 0-.49-.26 2.33 2.33 0 0 0-.4-.09l-7.89-.59v3l7.89.59a1.35 1.35 0 0 0 .35 0 1.54 1.54 0 0 0 .49-.2 1.36 1.36 0 0 0 .43-.43 1.18 1.18 0 0 0 .2-.75zm7.93 9.63v-13.35l15.53 1.61v2.88l-12.29-1.28v2.4l10.81 1.12v2.59l-10.81-1.13v2.59l12.77 1.33v2.88zm34.84 4.15l-1.49-2.87-9-1.23-1.49 2.47-3.43-.47 7.29-12.35 4.13.56 7.38 14.35zm-6-11.67l-2.94 4.9 5.87.8zm28.16 8.6a6.53 6.53 0 0 1-.53 2.65 5.28 5.28 0 0 1-1.52 2 5.78 5.78 0 0 1-2.39 1.14 7.94 7.94 0 0 1-3.16 0 9.49 9.49 0 0 1-3.16-1.11 9.24 9.24 0 0 1-2.4-2 8.36 8.36 0 0 1-1.52-2.52 7.89 7.89 0 0 1-.53-2.83v-6.67l3.21.55V154a5.66 5.66 0 0 0 .26 1.68 4.72 4.72 0 0 0 .8 1.5 5.08 5.08 0 0 0 1.37 1.17 5.89 5.89 0 0 0 2 .68 4.87 4.87 0 0 0 2 0 3.09 3.09 0 0 0 1.36-.7 3 3 0 0 0 .8-1.23 4.54 4.54 0 0 0 .27-1.59v-6.71l3.21.55V156zm16.46 10l-4.33-5.36-4.33 3.56-4.28-.89 6.47-5.33-6.47-8 4.28.89 4.33 5.36 4.33-3.56 4.28.89-6.47 5.33 6.47 8z"/></g></g></svg>